<?xml version="1.0" encoding="UTF-8" standalone="no"?>
<svg
   viewBox="0 0 1111.47 169.01"
   version="1.1"
   id="svg36"
   sodipodi:docname="Sensei BLUE II.svg"
   inkscape:version="1.2 (dc2aedaf03, 2022-05-15)"
   inkscape:export-filename="Sensei BLUE II.png"
   inkscape:export-xdpi="300"
   inkscape:export-ydpi="300"
   xmlns:inkscape="http://www.inkscape.org/namespaces/inkscape"
   xmlns:sodipodi="http://sodipodi.sourceforge.net/DTD/sodipodi-0.dtd"
   xmlns="http://www.w3.org/2000/svg"
   xmlns:svg="http://www.w3.org/2000/svg">
  <sodipodi:namedview
     id="namedview38"
     pagecolor="#ffffff"
     bordercolor="#000000"
     borderopacity="0.25"
     inkscape:showpageshadow="2"
     inkscape:pageopacity="0.0"
     inkscape:pagecheckerboard="0"
     inkscape:deskcolor="#d1d1d1"
     showgrid="false"
     inkscape:zoom="7.6597353"
     inkscape:cx="699.69781"
     inkscape:cy="124.28628"
     inkscape:window-width="1920"
     inkscape:window-height="1001"
     inkscape:window-x="-32000"
     inkscape:window-y="-32000"
     inkscape:window-maximized="0"
     inkscape:current-layer="svg36" />
  <defs
     id="defs4">
    <style
       id="style2">
      .cls-1 {
        fill: #fff;
      }
    </style>
  </defs>
  <g
     id="Type"
     transform="translate(-160.6185,-18.462959)"
     inkscape:highlight-color="#0066ff">
    <g
       id="g20"
       transform="translate(37.599211,-223.50642)">
      <path
         class="cls-1"
         d="m 1105.2035,399.43065 v 0.11 a 11.2,11.2 0 0 1 -22.39,0 v -146.19 a 11.2,11.2 0 0 1 22.39,0 z"
         id="path6"
         style="fill:#0066ff;fill-opacity:1" />
      <path
         class="cls-1"
         d="m 1048.8035,241.95065 a 11.38,11.38 0 0 1 11.19,11.4 11.2,11.2 0 0 1 -11.19,11.2 H 784.24346 a 25.27,25.27 0 0 0 0,50.54 h 59.39 a 47.88,47.88 0 1 1 0,95.75 h -95.85 a 11.3,11.3 0 0 1 -11.1,-11.41 11,11 0 0 1 11.1,-11 h 95.75 a 25.55,25.55 0 0 0 25.37,-25.49 25.27,25.27 0 0 0 -25.27,-25.28 h -59.39 a 47.87,47.87 0 0 1 0,-95.74 h 264.56004 z"
         id="path8"
         style="fill:#0066ff;fill-opacity:1" />
      <path
         class="cls-1"
         d="m 927.76346,377.04065 h 0.2 a 11.2,11.2 0 0 0 11.08,11.2 v 0.22 h 109.63004 a 11.11,11.11 0 0 1 11.3,11 11.47,11.47 0 0 1 -11.3,11.41 H 916.46346 v -0.21 a 11.2,11.2 0 0 1 -11.09,-11.2 h -0.21 v -72.86 l 0.21,-0.1 a 11.21,11.21 0 0 1 11.09,-11.2 h 132.34004 a 11.21,11.21 0 0 1 11.19,11.2 11.48,11.48 0 0 1 -11.3,11.42 H 939.06346 a 11.18,11.18 0 0 0 -11.1,11.18 l -0.22,0.12 z"
         id="path10"
         style="fill:#0066ff;fill-opacity:1" />
      <path
         class="cls-1"
         d="m 722.61346,399.43065 v 0.11 a 11.19,11.19 0 0 1 -19.65,7.24 h -0.06 l -45.44,-50.13 v 0 a 11.193379,11.193379 0 0 1 16.5,-15.13 v 0 l 22.81,25.25 a 1.85,1.85 0 0 0 3.21,-1.24 v -112.07 l 0.21,-0.11 a 11.2,11.2 0 0 1 22.39,0 v 146.08 z"
         id="path12"
         style="fill:#0066ff;fill-opacity:1" />
      <path
         class="cls-1"
         d="m 633.13346,296.38065 a 11.2,11.2 0 1 1 -16.6,15 h -0.12 l -22.81,-25.06 a 1.85,1.85 0 0 0 -3.21,1.24 v 111.9 a 11.2,11.2 0 0 1 -22.39,-0.11 v -146.04 a 11.19,11.19 0 0 1 19.5,-7.47 l 45.54,50.48 z"
         id="path14"
         style="fill:#0066ff;fill-opacity:1" />
      <path
         class="cls-1"
         d="m 533.96346,241.95065 a 11.37,11.37 0 0 1 11.19,11.4 11.19,11.19 0 0 1 -11.19,11.2 h -264.52 a 25.27,25.27 0 0 0 0,50.54 h 59.14 a 47.88,47.88 0 1 1 0,95.75 h -88.6 a 11.37,11.37 0 0 1 -11.02,-11.41 11.19,11.19 0 0 1 11.09,-11.19 h 88.6 a 25.28,25.28 0 0 0 0,-50.55 h -59.21 a 47.87,47.87 0 0 1 0,-95.74 z"
         id="path16"
         style="fill:#0066ff;fill-opacity:1" />
      <path
         class="cls-1"
         d="m 533.96346,315.30065 a 11.2,11.2 0 0 1 11.19,11.2 11.38,11.38 0 0 1 -11.19,11.42 h -109.7 a 11.18,11.18 0 0 0 -11.08,11.18 v 28 a 11.19,11.19 0 0 0 11.08,11.09 h 109.7 a 11.2,11.2 0 0 1 0,22.39 h -132.31 a 11.2,11.2 0 0 1 -11.09,-11.09 v -73 a 11.21,11.21 0 0 1 11.09,-11.2 h 132.31 z"
         id="path18"
         style="fill:#0066ff;fill-opacity:1" />
    </g>
  </g>
</svg>
